<svg width="149" height="16" viewBox="0 0 149 16" fill="none" xmlns="http://www.w3.org/2000/svg">
<path d="M140.745 0.78347C136.78 0.78347 133.875 3.55505 133.39 7.06029H125.3C124.824 3.52562 121.953 0.78347 117.984 0.78347C114.019 0.78347 111.114 3.55505 110.629 7.06029H97.5543C97.4183 7.05576 97.2824 7.0535 97.1442 7.05123C96.6639 7.04897 96.2017 7.32295 96.0408 7.77583C95.7349 8.64081 96.3059 9.46052 97.0513 9.46052C97.0649 9.46052 97.0762 9.46052 97.0898 9.46052H99.9038C99.385 11.7928 97.6472 13.5001 95.309 13.5001C92.5064 13.5001 90.508 11.0025 90.508 7.99774C90.508 4.94764 92.4633 2.49533 95.2682 2.49533C97.0037 2.49533 98.413 3.4441 99.2467 4.8865L99.3125 4.98613C99.5685 5.4458 99.9967 5.62242 100.559 5.56128C101.014 5.51146 101.41 5.18766 101.542 4.74837C101.759 4.0351 101.517 3.61619 101.161 3.10897C99.8698 1.23408 97.8239 0 95.309 0C91.2897 0 88.3624 3.13388 87.9569 7.06029H80.1607C79.6849 3.52562 76.8143 0.78347 72.8448 0.78347C68.4948 0.78347 65.418 4.12114 65.418 8.10416C65.418 12.1279 68.454 15.4249 72.8041 15.4249C76.6489 15.4249 79.4969 12.8186 80.1063 9.46278H88.0203C88.6094 13.1673 91.4211 16 95.266 16C99.104 16 101.941 13.1378 102.543 9.46278H110.677C111.275 12.8435 114.094 15.4249 117.943 15.4249C121.788 15.4249 124.636 12.8186 125.245 9.46278H133.438C134.036 12.8435 136.855 15.4249 140.704 15.4249C145.054 15.4249 148.131 12.0872 148.131 8.10416C148.131 4.07812 145.095 0.78347 140.745 0.78347ZM72.8471 13.1401C70.0354 13.1401 68.0326 10.8554 68.0326 8.10416C68.0326 5.31446 69.9946 3.06821 72.8086 3.06821C75.6203 3.06821 77.6232 5.35296 77.6232 8.10416C77.6232 10.8939 75.6611 13.1401 72.8471 13.1401ZM117.984 13.1401C115.172 13.1401 113.169 10.8554 113.169 8.10416C113.169 5.31446 115.131 3.06821 117.945 3.06821C120.759 3.06821 122.76 5.35296 122.76 8.10416C122.76 10.8939 120.798 13.1401 117.984 13.1401ZM140.745 13.1401C137.933 13.1401 135.93 10.8554 135.93 8.10416C135.93 5.31446 137.892 3.06821 140.706 3.06821C143.518 3.06821 145.521 5.35296 145.521 8.10416C145.521 10.8939 143.559 13.1401 140.745 13.1401Z" fill="black"/>
<path d="M11.6864 0.31692C11.0429 0.357679 10.5739 0.950944 10.5739 1.59402V10.6198L3.62282 1.09133C3.28523 0.649783 2.94765 0.332771 2.35177 0.332771H1.23026C0.536966 0.335035 0 0.923771 0 1.63931V13.9847C0 14.6798 0.536966 15.2459 1.21214 15.2459C1.86692 15.2459 2.40388 14.6776 2.40388 13.9847V4.64639L9.55436 14.4489C9.89195 14.9108 10.2499 15.2278 10.8254 15.2278H11.7249C12.4159 15.2278 12.9778 14.6662 12.9778 13.9756V1.57591C12.9778 0.85584 12.4001 0.271633 11.6864 0.31692Z" fill="black"/>
<path d="M56.4667 0.334961H55.4336C54.9374 0.334961 54.5794 0.563662 54.3211 1.00295L50.0911 7.95456L45.8792 1.02333C45.6413 0.627064 45.2833 0.334961 44.7464 0.334961H44.4881C43.7925 0.334961 43.2578 0.919168 43.2578 1.63018V13.8646C43.2578 14.4805 43.754 15.0941 44.3703 15.1326C45.0817 15.1779 45.6617 14.6209 45.6617 13.8827V5.22373L49.3434 10.742C49.6244 11.1745 49.971 11.4349 50.4468 11.4349C50.9453 11.4349 51.2919 11.1745 51.5729 10.742L55.275 5.18071V13.86C55.275 14.5099 55.7576 15.1032 56.4078 15.1326C57.1193 15.1666 57.6766 14.5914 57.6766 13.86V1.63018C57.6766 0.919168 57.1487 0.334961 56.4667 0.334961Z" fill="black"/>
<path d="M29.5352 1.39921C29.2361 0.738019 28.7241 0.334961 27.9787 0.334961H27.8495C27.1041 0.334961 26.5694 0.740283 26.2726 1.39921L20.7285 13.7604C20.622 13.9733 20.5586 14.1657 20.5586 14.3559C20.5586 15.0375 21.091 15.5696 21.773 15.5696C22.3281 15.5696 22.7744 15.2707 22.9874 14.7386L24.2448 11.8606H31.495L32.7094 14.6526C32.945 15.2073 33.371 15.5696 33.9895 15.5696C34.6941 15.5696 35.2266 15.0149 35.2266 14.3129C35.2266 14.1431 35.1835 13.9506 35.077 13.7581L29.5352 1.39921ZM25.3029 9.46263L27.8722 3.55489L30.4415 9.46263H25.3029Z" fill="black"/>
</svg>
