<svg width="197" height="22" viewBox="0 0 197 22" fill="none" xmlns="http://www.w3.org/2000/svg">
<path d="M187.177 1.04193C181.904 1.04193 178.041 4.72784 177.396 9.38944H166.636C166.004 4.6887 162.186 1.04193 156.907 1.04193C151.634 1.04193 147.771 4.72784 147.127 9.38944H129.738C129.557 9.38342 129.376 9.3804 129.193 9.37739C128.554 9.37438 127.939 9.73876 127.725 10.341C127.318 11.4914 128.078 12.5815 129.069 12.5815C129.087 12.5815 129.102 12.5815 129.12 12.5815H132.863C132.173 15.6832 129.861 17.9538 126.752 17.9538C123.025 17.9538 120.367 14.6322 120.367 10.6361C120.367 6.57983 122.967 3.31853 126.698 3.31853C129.006 3.31853 130.88 4.58029 131.989 6.49853L132.076 6.63103C132.417 7.24233 132.986 7.47722 133.733 7.39591C134.339 7.32966 134.866 6.89904 135.041 6.31483C135.33 5.36625 135.008 4.80915 134.535 4.1346C132.817 1.64119 130.096 0 126.752 0C121.407 0 117.514 4.16773 116.974 9.38944H106.606C105.974 4.6887 102.156 1.04193 96.877 1.04193C91.0918 1.04193 87 5.48069 87 10.7777C87 16.1289 91.0376 20.5134 96.8227 20.5134C101.936 20.5134 105.723 17.0473 106.534 12.5845H117.059C117.842 17.5111 121.581 21.2783 126.695 21.2783C131.799 21.2783 135.571 17.4719 136.373 12.5845H147.19C147.985 17.0805 151.734 20.5134 156.853 20.5134C161.966 20.5134 165.754 17.0473 166.564 12.5845H177.46C178.255 17.0805 182.003 20.5134 187.123 20.5134C192.908 20.5134 197 16.0747 197 10.7777C197 5.42347 192.962 1.04193 187.177 1.04193ZM96.88 17.475C93.1407 17.475 90.4771 14.4365 90.4771 10.7777C90.4771 7.06768 93.0865 4.0804 96.8288 4.0804C100.568 4.0804 103.232 7.11887 103.232 10.7777C103.232 14.4877 100.622 17.475 96.88 17.475ZM156.907 17.475C153.168 17.475 150.504 14.4365 150.504 10.7777C150.504 7.06768 153.114 4.0804 156.856 4.0804C160.598 4.0804 163.259 7.11887 163.259 10.7777C163.259 14.4877 160.649 17.475 156.907 17.475ZM187.177 17.475C183.438 17.475 180.774 14.4365 180.774 10.7777C180.774 7.06768 183.383 4.0804 187.126 4.0804C190.865 4.0804 193.528 7.11887 193.528 10.7777C193.528 14.4877 190.919 17.475 187.177 17.475Z" fill="black"/>
<path d="M15.5416 0.421494C14.6859 0.475699 14.0622 1.26468 14.0622 2.11991V14.1232L4.81797 1.45138C4.36901 0.864166 3.92006 0.442573 3.12761 0.442573H1.63612C0.714108 0.445585 0 1.22854 0 2.18014V18.5981C0 19.5226 0.714108 20.2755 1.61201 20.2755C2.4828 20.2755 3.19691 19.5196 3.19691 18.5981V6.17924L12.7063 19.2155C13.1552 19.8298 13.6313 20.2514 14.3966 20.2514H15.5929C16.5119 20.2514 17.2591 19.5046 17.2591 18.5861V2.09582C17.2591 1.1382 16.4908 0.361266 15.5416 0.421494Z" fill="black"/>
<path d="M75.0938 0.445557H73.7198C73.06 0.445557 72.5839 0.749705 72.2404 1.33391L66.6149 10.5788L61.0135 1.36101C60.6971 0.834024 60.2211 0.445557 59.507 0.445557H59.1635C58.2384 0.445557 57.5273 1.22249 57.5273 2.16806V18.4385C57.5273 19.2576 58.1872 20.0737 59.0068 20.1249C59.9529 20.1851 60.7243 19.4443 60.7243 18.4626V6.94711L65.6206 14.2858C65.9942 14.861 66.4552 15.2073 67.088 15.2073C67.7509 15.2073 68.2119 14.861 68.5855 14.2858L73.5089 6.88989V18.4325C73.5089 19.2967 74.1507 20.0857 75.0155 20.1249C75.9616 20.17 76.7028 19.4052 76.7028 18.4325V2.16806C76.7028 1.22249 76.0008 0.445557 75.0938 0.445557Z" fill="black"/>
<path d="M39.2778 1.8609C38.8801 0.981581 38.1991 0.445557 37.2078 0.445557H37.036C36.0447 0.445557 35.3336 0.984592 34.9389 1.8609L27.5658 18.3C27.4242 18.583 27.3398 18.839 27.3398 19.092C27.3398 19.9984 28.0479 20.7061 28.9549 20.7061C29.6931 20.7061 30.2867 20.3086 30.5699 19.6009L32.2422 15.7734H41.8841L43.4992 19.4865C43.8125 20.2242 44.379 20.7061 45.2016 20.7061C46.1386 20.7061 46.8467 19.9683 46.8467 19.0348C46.8467 18.8089 46.7895 18.5529 46.6479 18.297L39.2778 1.8609ZM33.6493 12.5844L37.0662 4.72773L40.483 12.5844H33.6493Z" fill="black"/>
</svg>
