<svg width="25" height="24" viewBox="0 0 25 24" fill="none" xmlns="http://www.w3.org/2000/svg">
<path d="M12.782 3.26793e-07C6.89718 -0.000774997 1.88065 4.37673 0.938445 10.3349C-0.00375602 16.293 3.40659 22.0725 8.98993 23.9796C9.59127 24.0906 9.80655 23.7119 9.80655 23.3863C9.80655 23.0939 9.79693 22.3192 9.79332 21.2892C6.45587 22.0293 5.7511 19.6386 5.7511 19.6386C5.53139 18.8947 5.05905 18.2562 4.41973 17.8388C3.33732 17.0753 4.50272 17.0925 4.50272 17.0925C5.27325 17.2009 5.95141 17.6692 6.33922 18.3606C6.66747 18.9728 7.22049 19.4252 7.87541 19.6172C8.53032 19.8092 9.23289 19.725 9.827 19.3833C9.88283 18.7591 10.1536 18.1757 10.5907 17.7377C7.92796 17.4281 5.12811 16.3721 5.12811 11.6561C5.11333 10.4364 5.55494 9.25717 6.36207 8.36122C5.99687 7.29949 6.03988 6.13492 6.48233 5.10457C6.48233 5.10457 7.48898 4.77273 9.78009 6.36405C11.7451 5.81142 13.8189 5.81142 15.7839 6.36405C18.0762 4.7715 19.0816 5.10457 19.0816 5.10457C19.5262 6.13443 19.5692 7.29982 19.2019 8.36122C20.012 9.25709 20.4532 10.4394 20.4335 11.6611C20.4335 16.3894 17.6312 17.4281 14.9588 17.7328C15.5353 18.3373 15.831 19.1666 15.7707 20.0099C15.7707 21.6555 15.7562 22.9829 15.7562 23.3863C15.7562 23.7156 15.9703 24.098 16.5825 23.9771C22.1635 22.0668 25.5702 16.287 24.626 10.3304C23.6819 4.37386 18.6656 -0.00138059 12.782 3.26793e-07Z" fill="#F48686"/>
</svg>
