<svg width="37" height="52" viewBox="0 0 37 52" fill="none" xmlns="http://www.w3.org/2000/svg">
<path d="M5.79626 0H3.44248V7.01221H5.7964V4.66412H7.94974V7.01221H10.3037V0H7.9496V2.3156H5.79626V0Z" fill="#F48686"/>
<path d="M11.327 2.32542H13.399L13.3995 7.01221H15.7534V2.32542H17.8267V0H11.327V2.32542Z" fill="#F48686"/>
<path d="M21.3126 0H18.8582V7.01221H21.1613V3.53658L22.7818 6.0298H22.8224L24.4419 3.53658V7.01221H26.7862V0H24.3308L22.8224 2.46391L21.3126 0Z" fill="#F48686"/>
<path d="M30.3123 0H27.9577L27.9575 7.01221H33.6226V4.69445H30.3123V0Z" fill="#F48686"/>
<path fill-rule="evenodd" clip-rule="evenodd" d="M37 10.2193L33.6292 47.8176L18.4774 52L3.36729 47.8234L0 10.2193H37ZM12.3706 27.2407L11.9472 22.518L29.6723 22.518L30.087 17.906L6.88504 17.906L8.13437 31.8527L24.1877 31.8527L23.6499 37.8341L18.4837 39.2225L18.4796 39.2239L13.321 37.837L12.9912 34.1588H8.34134L8.99023 41.4003L18.4786 44.0228L18.4999 44.017V44.0161L27.9796 41.4003L29.1379 28.4792L29.2509 27.2407L12.3706 27.2407Z" fill="#F48686"/>
</svg>
