<svg width="49" height="44" viewBox="0 0 49 44" fill="none" xmlns="http://www.w3.org/2000/svg">
<path d="M1.59021 0.000131065C1.36107 -0.0028278 1.13405 0.0443444 0.925111 0.138335C0.71617 0.232325 0.530369 0.370855 0.380755 0.544195C0.231141 0.717534 0.121343 0.921481 0.059072 1.14171C-0.00319908 1.36194 -0.0164333 1.59312 0.0202987 1.819L6.68485 42.2204C6.76787 42.7148 7.02269 43.1642 7.40455 43.4896C7.78641 43.8151 8.27089 43.9957 8.7729 43.9999H40.7453C41.1216 44.0047 41.487 43.8743 41.7752 43.6326C42.0633 43.3909 42.2549 43.0539 42.315 42.6829L48.9798 1.82684C49.0164 1.60097 49.0031 1.36982 48.9408 1.14962C48.8785 0.929422 48.7687 0.725516 48.6191 0.552217C48.4694 0.378918 48.2836 0.240429 48.0747 0.146473C47.8658 0.0525169 47.6388 0.00537252 47.4097 0.00834999L1.59021 0.000131065ZM29.6533 29.1999H19.4485L16.6854 14.7843H32.1261L29.6533 29.1999Z" fill="#F48686"/>
</svg>
