<svg width="36" height="52" viewBox="0 0 36 52" fill="none" xmlns="http://www.w3.org/2000/svg">
<path d="M13.9307 0H8.47237V7.00774H13.931V4.67192H10.7551V2.33596H13.9307V0Z" fill="#F48686"/>
<path d="M20.481 0H15.0225L15.0224 4.57011H18.1985V4.97634H15.0227V7.1094H20.481V2.43748H17.3052V2.03126H20.481V0Z" fill="#F48686"/>
<path d="M27.0313 0H21.573V4.57011H24.7486V4.97634H21.5728V7.1094H27.0313V2.43748H23.8555V2.03126H27.0313V0Z" fill="#F48686"/>
<path fill-rule="evenodd" clip-rule="evenodd" d="M17.978 52L3.27628 47.8234L0 10.2193H36L32.7203 47.8176L17.978 52ZM7.91462 31.8527L7.51074 27.2407L23.9249 27.2408L24.3349 22.518L7.1087 22.518L6.69905 17.906L29.274 17.906L28.4605 27.2408L28.3505 28.4792L27.2236 41.4004L18 44.0162V44.017L17.9793 44.0228L8.74734 41.4003L8.11599 34.1588H12.6402L12.9611 37.837L17.9802 39.224L17.9843 39.2229L23.0109 37.8342L23.5341 31.8527L7.91462 31.8527Z" fill="#F48686"/>
</svg>
