<svg width="32" height="50" viewBox="0 0 32 50" fill="none" xmlns="http://www.w3.org/2000/svg">
<path d="M7.99998 0C3.58399 0 0 3.73333 0 8.33332C0 12.9299 3.57867 16.6611 7.99014 16.6666C3.57867 16.6722 0 20.4034 0 24.9999C0 29.5999 3.58399 33.3332 7.99998 33.3332H16V16.6666V0H7.99998Z" fill="#F48686"/>
<path d="M7.99998 50C12.416 50 16 46.2666 16 41.6666V33.3332H7.99998C3.58399 33.3332 0 37.0666 0 41.6666C0 46.2666 3.58399 50 7.99998 50Z" fill="#F48686"/>
<path d="M16 0H24C28.416 0 32 3.73333 32 8.33332C32 12.9299 28.4213 16.6611 24.0098 16.6666C28.4213 16.6722 32 20.4034 32 24.9999C32 29.5999 28.416 33.3332 24 33.3332C19.584 33.3332 16 29.5999 16 24.9999C16 20.4051 19.5759 16.6751 23.985 16.6666H16V0Z" fill="#F48686"/>
</svg>
