<svg width="47" height="48" viewBox="0 0 47 48" fill="none" xmlns="http://www.w3.org/2000/svg">
<path d="M0 0.5H47V47.5H0V0.5Z" fill="#F48686"/>
<path d="M22.5674 17.9047H24.8219V21.7969H18.7266V39.1134L18.565 39.1575C18.3447 39.2162 15.4439 39.2162 14.8197 39.1502L14.3203 39.1061V21.7969H8.225V17.9047L10.1564 17.8827C11.2139 17.868 13.9311 17.868 16.193 17.8827C18.4549 17.8973 21.3189 17.9047 22.5674 17.9047ZM39.7738 37.2775C38.8779 38.2248 37.9158 38.7536 36.3149 39.1869C35.6172 39.3778 35.4997 39.3852 33.9282 39.3778C32.3566 39.3705 32.2318 39.3705 31.468 39.1722C29.4925 38.6655 27.8989 37.6741 26.8121 36.2714C26.5036 35.8748 25.9969 35.0523 25.9969 34.9495C25.9969 34.9202 26.0703 34.8541 26.1658 34.81C26.2613 34.7659 26.4596 34.6411 26.6211 34.5456C26.7827 34.4502 27.0764 34.2739 27.2747 34.1711C27.473 34.0683 28.0458 33.7305 28.5452 33.4294C29.0446 33.1283 29.4999 32.8859 29.5513 32.8859C29.6027 32.8859 29.6982 32.9887 29.7716 33.1136C30.2122 33.8553 31.2404 34.8027 31.9674 35.1258C32.4154 35.3167 33.4068 35.5297 33.8841 35.5297C34.3247 35.5297 35.1325 35.3387 35.5658 35.1405C36.0285 34.9275 36.2635 34.7145 36.5425 34.2886C36.7335 33.9875 36.7555 33.9067 36.7482 33.3339C36.7482 32.8052 36.7188 32.6583 36.5719 32.4159C36.1607 31.7403 35.6025 31.3878 33.3407 30.3891C31.0054 29.3536 29.9552 28.7367 29.1033 27.9069C28.4718 27.29 28.3469 27.1211 27.9503 26.35C27.4363 25.3586 27.3702 25.0355 27.3628 23.5594C27.3555 22.5239 27.3775 22.1861 27.4877 21.8336C27.6419 21.3048 28.1413 20.2841 28.3689 20.027C28.8389 19.4762 29.0078 19.3073 29.3383 19.0356C30.3371 18.2131 31.8939 17.6697 33.3847 17.6183C33.5536 17.6183 34.1118 17.6477 34.6332 17.6844C36.1313 17.8092 37.1521 18.1764 38.1361 18.9622C38.8779 19.5497 40.0015 20.9303 39.8913 21.1139C39.8179 21.2241 36.8877 23.1775 36.6968 23.2362C36.5793 23.273 36.4985 23.2289 36.3369 23.038C35.3382 21.8409 34.9343 21.5839 33.9649 21.5252C33.2746 21.4811 32.9074 21.5619 32.4447 21.8703C31.96 22.1934 31.725 22.6855 31.725 23.3684C31.7324 24.3672 32.1143 24.8372 33.5243 25.5348C34.4349 25.9828 35.2133 26.35 35.2721 26.35C35.3602 26.35 37.2476 27.29 37.7396 27.5837C40.0308 28.9277 40.9635 30.3083 41.2058 32.6877C41.3821 34.4795 40.8754 36.1172 39.7738 37.2775Z" fill="white"/>
</svg>
