<svg width="136" height="115" viewBox="0 0 136 115" fill="none" xmlns="http://www.w3.org/2000/svg">
<path d="M16.5218 65.9652L37.6657 65.9652" stroke="#FC85AD" stroke-width="4.52146" stroke-linecap="round" stroke-linejoin="round"/>
<path d="M2.82636 72.9653L37.3783 72.9653" stroke="#FC85AD" stroke-width="4.52146" stroke-linecap="round" stroke-linejoin="round"/>
<path d="M120.703 19.0629C120.703 25.2168 120.703 28.2937 120.703 29.063" stroke="#85A6FC" stroke-width="1.07184" stroke-dasharray="2.14 2.14"/>
<path d="M136 14.063C129.852 14.063 126.778 14.063 126.01 14.063" stroke="#85A6FC" stroke-width="1.07184" stroke-dasharray="2.14 2.14"/>
<path d="M116.957 14.063C110.809 14.063 107.735 14.063 106.967 14.063" stroke="#85A6FC" stroke-width="1.07184" stroke-dasharray="2.14 2.14"/>
<path d="M120.703 10.0004C120.703 3.84645 120.703 0.769485 120.703 0.000244141" stroke="#85A6FC" stroke-width="1.07184" stroke-dasharray="2.14 2.14"/>
<path d="M120.823 15.8912C120.391 14.9951 119.665 14.27 118.77 13.8367C119.664 13.4052 120.388 12.6813 120.819 11.7863C121.253 12.682 121.978 13.4069 122.874 13.8401C121.979 14.272 121.255 14.996 120.823 15.8912Z" fill="#85A6FC" stroke="#85A6FC" stroke-width="2.14369"/>
<g filter="url(#filter0_b)">
<path d="M106.967 34.7483H20.1836L35.0607 87.6979H87.4061L106.967 34.7483Z" fill="white" fill-opacity="0.2"/>
<path d="M106.967 34.7483H20.1836L35.0607 87.6979H87.4061L106.967 34.7483Z" stroke="black" stroke-width="1.5" stroke-miterlimit="10" stroke-linecap="round" stroke-linejoin="round"/>
</g>
<line y1="-0.75" x2="15.2546" y2="-0.75" transform="matrix(0.216723 0.976233 -0.976141 0.217139 34.2344 86.8706)" stroke="black" stroke-width="1.5"/>
<line y1="-0.75" x2="15.4548" y2="-0.75" transform="matrix(0.267394 0.963587 -0.963448 0.267894 16.0508 22.3381)" stroke="black" stroke-width="1.5"/>
<path d="M2 22.5449H17.4404" stroke="black" stroke-width="1.5"/>
<line x1="37.5391" y1="101.013" x2="80.5174" y2="101.013" stroke="black" stroke-width="1.5"/>
<path d="M45.0545 108.795C45.0545 110.895 43.3543 112.595 41.2587 112.595C39.163 112.595 37.4629 110.895 37.4629 108.795C37.4629 106.695 39.163 104.995 41.2587 104.995C43.3543 104.995 45.0545 106.695 45.0545 108.795Z" fill="black" stroke="black" stroke-width="1.5"/>
<path d="M78.115 108.795C78.115 110.895 76.4149 112.595 74.3192 112.595C72.2236 112.595 70.5234 110.895 70.5234 108.795C70.5234 106.695 72.2236 104.995 74.3192 104.995C76.4149 104.995 78.115 106.695 78.115 108.795Z" fill="black" stroke="black" stroke-width="1.5"/>
<path d="M82.2482 31.8526C82.2482 42.1769 73.8873 50.545 63.5753 50.545C53.2632 50.545 44.9023 42.1769 44.9023 31.8526C44.9023 21.5283 53.2632 13.1602 63.5753 13.1602C73.8873 13.1602 82.2482 21.5283 82.2482 31.8526Z" fill="#F6F6F6" stroke="black" stroke-width="1.5"/>
<path d="M53.2441 33.8923L60.0175 39.7122L73.0803 25.6475" stroke="black" stroke-width="3" stroke-linecap="round" stroke-linejoin="round"/>
<defs>
<filter id="filter0_b" x="17.4336" y="31.9983" width="92.2832" height="58.4496" filterUnits="userSpaceOnUse" color-interpolation-filters="sRGB">
<feFlood flood-opacity="0" result="BackgroundImageFix"/>
<feGaussianBlur in="BackgroundImage" stdDeviation="1"/>
<feComposite in2="SourceAlpha" operator="in" result="effect1_backgroundBlur"/>
<feBlend mode="normal" in="SourceGraphic" in2="effect1_backgroundBlur" result="shape"/>
</filter>
</defs>
</svg>
