<svg width="48" height="48" viewBox="0 0 48 48" fill="none" xmlns="http://www.w3.org/2000/svg">
<g filter="url(#filter0_d)">
<mask id="path-1-outside-1" maskUnits="userSpaceOnUse" x="3.00391" y="3.00006" width="43" height="42" fill="black">
<rect fill="white" x="3.00391" y="3.00006" width="43" height="42"/>
<path fill-rule="evenodd" clip-rule="evenodd" d="M37.1204 4.00006C38.9463 4.00006 40.6975 4.72446 41.99 6.0143C43.2807 7.30559 44.0059 9.05671 44.0059 10.8826C44.0059 12.7085 43.2807 14.4596 41.99 15.7509L40.7713 16.968C40.6071 17.124 40.3893 17.2111 40.1628 17.2111C39.9363 17.2111 39.7185 17.124 39.5543 16.968L31.0339 8.44845C30.8725 8.28704 30.7819 8.06815 30.7819 7.83991C30.7819 7.61168 30.8725 7.39279 31.0339 7.23138L32.2508 6.0143C33.5432 4.72446 35.2945 4.00006 37.1204 4.00006ZM32.251 13.3169L29.2077 10.275C29.0463 10.1137 28.8275 10.023 28.5992 10.023C28.371 10.023 28.1522 10.1137 27.9908 10.275L9.73287 28.5329C9.57152 28.6943 9.48088 28.9132 9.48088 29.1414C9.48088 29.3696 9.57152 29.5885 9.73287 29.7499L12.7761 32.7935C12.8573 32.8736 12.9668 32.9185 13.0808 32.9185C13.1949 32.9185 13.3043 32.8736 13.3855 32.7935L32.251 13.9263C32.3311 13.8451 32.376 13.7356 32.376 13.6216C32.376 13.5075 32.3311 13.398 32.251 13.3169ZM15.2112 34.6182L34.0767 15.751C34.1578 15.6709 34.2673 15.626 34.3813 15.626C34.4954 15.626 34.6048 15.6709 34.686 15.751L37.7293 18.7946C37.8906 18.956 37.9813 19.1749 37.9813 19.4031C37.9813 19.6313 37.8906 19.8502 37.7293 20.0116L19.4714 38.2712C19.3085 38.4296 19.0902 38.5183 18.8629 38.5183C18.6356 38.5183 18.4173 38.4296 18.2544 38.2712L15.2112 35.2276C15.1311 35.1464 15.0861 35.037 15.0861 34.9229C15.0861 34.8089 15.1311 34.6994 15.2112 34.6182ZM7.51155 31.3502C7.66078 31.3883 7.79704 31.4658 7.90611 31.5746L16.4266 40.0975C16.5358 40.2066 16.6137 40.343 16.6521 40.4924C16.6905 40.6419 16.688 40.799 16.6449 40.9472C16.6018 41.0954 16.5196 41.2292 16.407 41.3348C16.2944 41.4403 16.1555 41.5136 16.0049 41.547L5.05046 43.9811C4.90903 44.011 4.76239 44.0054 4.62364 43.9649C4.48488 43.9243 4.35832 43.8501 4.25522 43.7488C4.15301 43.6463 4.07829 43.5197 4.03797 43.3807C3.99766 43.2416 3.99304 43.0947 4.02456 42.9534L6.45849 31.9963C6.49209 31.846 6.56541 31.7075 6.67081 31.5951C6.77621 31.4828 6.90982 31.4008 7.0577 31.3577C7.20558 31.3146 7.36232 31.312 7.51155 31.3502Z"/>
</mask>
<path fill-rule="evenodd" clip-rule="evenodd" d="M37.1204 4.00006C38.9463 4.00006 40.6975 4.72446 41.99 6.0143C43.2807 7.30559 44.0059 9.05671 44.0059 10.8826C44.0059 12.7085 43.2807 14.4596 41.99 15.7509L40.7713 16.968C40.6071 17.124 40.3893 17.2111 40.1628 17.2111C39.9363 17.2111 39.7185 17.124 39.5543 16.968L31.0339 8.44845C30.8725 8.28704 30.7819 8.06815 30.7819 7.83991C30.7819 7.61168 30.8725 7.39279 31.0339 7.23138L32.2508 6.0143C33.5432 4.72446 35.2945 4.00006 37.1204 4.00006ZM32.251 13.3169L29.2077 10.275C29.0463 10.1137 28.8275 10.023 28.5992 10.023C28.371 10.023 28.1522 10.1137 27.9908 10.275L9.73287 28.5329C9.57152 28.6943 9.48088 28.9132 9.48088 29.1414C9.48088 29.3696 9.57152 29.5885 9.73287 29.7499L12.7761 32.7935C12.8573 32.8736 12.9668 32.9185 13.0808 32.9185C13.1949 32.9185 13.3043 32.8736 13.3855 32.7935L32.251 13.9263C32.3311 13.8451 32.376 13.7356 32.376 13.6216C32.376 13.5075 32.3311 13.398 32.251 13.3169ZM15.2112 34.6182L34.0767 15.751C34.1578 15.6709 34.2673 15.626 34.3813 15.626C34.4954 15.626 34.6048 15.6709 34.686 15.751L37.7293 18.7946C37.8906 18.956 37.9813 19.1749 37.9813 19.4031C37.9813 19.6313 37.8906 19.8502 37.7293 20.0116L19.4714 38.2712C19.3085 38.4296 19.0902 38.5183 18.8629 38.5183C18.6356 38.5183 18.4173 38.4296 18.2544 38.2712L15.2112 35.2276C15.1311 35.1464 15.0861 35.037 15.0861 34.9229C15.0861 34.8089 15.1311 34.6994 15.2112 34.6182ZM7.51155 31.3502C7.66078 31.3883 7.79704 31.4658 7.90611 31.5746L16.4266 40.0975C16.5358 40.2066 16.6137 40.343 16.6521 40.4924C16.6905 40.6419 16.688 40.799 16.6449 40.9472C16.6018 41.0954 16.5196 41.2292 16.407 41.3348C16.2944 41.4403 16.1555 41.5136 16.0049 41.547L5.05046 43.9811C4.90903 44.011 4.76239 44.0054 4.62364 43.9649C4.48488 43.9243 4.35832 43.8501 4.25522 43.7488C4.15301 43.6463 4.07829 43.5197 4.03797 43.3807C3.99766 43.2416 3.99304 43.0947 4.02456 42.9534L6.45849 31.9963C6.49209 31.846 6.56541 31.7075 6.67081 31.5951C6.77621 31.4828 6.90982 31.4008 7.0577 31.3577C7.20558 31.3146 7.36232 31.312 7.51155 31.3502Z" fill="white"/>
<path d="M41.99 6.0143L42.6972 5.30733L42.6964 5.30649L41.99 6.0143ZM41.99 15.7509L42.6966 16.4585L42.6972 16.4578L41.99 15.7509ZM40.7713 16.968L41.4604 17.6926L41.4693 17.6842L41.4779 17.6755L40.7713 16.968ZM39.5543 16.968L38.8473 17.6751L38.8561 17.684L38.8652 17.6926L39.5543 16.968ZM31.0339 8.44845L30.3266 9.15542L30.3268 9.15559L31.0339 8.44845ZM31.0339 7.23138L30.3267 6.5243L30.3266 6.52441L31.0339 7.23138ZM32.2508 6.0143L31.5444 5.30649L31.5437 5.30723L32.2508 6.0143ZM29.2077 10.275L28.5007 10.9822L28.5008 10.9823L29.2077 10.275ZM32.251 13.3169L32.9628 12.6145L32.9579 12.6096L32.251 13.3169ZM27.9908 10.275L27.2837 9.56787L27.2837 9.56794L27.9908 10.275ZM9.73287 28.5329L9.02576 27.8257L9.02562 27.8259L9.73287 28.5329ZM9.73287 29.7499L9.02562 30.4569L9.02573 30.457L9.73287 29.7499ZM12.7761 32.7935L12.069 33.5006L12.0737 33.5052L12.7761 32.7935ZM13.3855 32.7935L14.0879 33.5052L14.0926 33.5005L13.3855 32.7935ZM32.251 13.9263L32.9582 14.6334L32.9628 14.6286L32.251 13.9263ZM34.0767 15.751L33.3742 15.0392L33.3695 15.0439L34.0767 15.751ZM15.2112 34.6182L14.504 33.9111L14.4993 33.9159L15.2112 34.6182ZM34.686 15.751L35.3932 15.0439L35.3884 15.0392L34.686 15.751ZM37.7293 18.7946L38.4365 18.0876L38.4364 18.0875L37.7293 18.7946ZM37.7293 20.0116L38.4364 20.7187L38.4365 20.7186L37.7293 20.0116ZM19.4714 38.2712L20.1687 38.988L20.1785 38.9782L19.4714 38.2712ZM18.2544 38.2712L17.5472 38.9783L17.5572 38.988L18.2544 38.2712ZM15.2112 35.2276L14.4993 35.93L14.504 35.9347L15.2112 35.2276ZM7.90611 31.5746L8.61332 30.8676L8.61222 30.8665L7.90611 31.5746ZM7.51155 31.3502L7.26389 32.319L7.2639 32.319L7.51155 31.3502ZM16.4266 40.0975L15.7194 40.8045L15.72 40.8052L16.4266 40.0975ZM16.6521 40.4924L15.6836 40.7413L15.6836 40.7413L16.6521 40.4924ZM16.6449 40.9472L15.6847 40.6678L15.6847 40.6678L16.6449 40.9472ZM16.407 41.3348L15.7232 40.6051L15.7232 40.6051L16.407 41.3348ZM16.0049 41.547L15.7883 40.5707L15.7879 40.5708L16.0049 41.547ZM5.05046 43.9811L5.25718 44.9596L5.26738 44.9573L5.05046 43.9811ZM4.62364 43.9649L4.90415 43.005L4.90415 43.005L4.62364 43.9649ZM4.25522 43.7488L3.54716 44.455L3.55421 44.4619L4.25522 43.7488ZM4.03797 43.3807L4.9984 43.1021L4.03797 43.3807ZM4.02456 42.9534L5.00057 43.1712L5.00077 43.1703L4.02456 42.9534ZM6.45849 31.9963L5.48257 31.7782L5.48229 31.7795L6.45849 31.9963ZM6.67081 31.5951L7.40006 32.2794L7.40007 32.2794L6.67081 31.5951ZM7.0577 31.3577L6.77798 30.3976L6.77798 30.3976L7.0577 31.3577ZM42.6964 5.30649C41.2165 3.82955 39.2111 3.00006 37.1204 3.00006V5.00006C38.6814 5.00006 40.1786 5.61937 41.2836 6.72212L42.6964 5.30649ZM45.0059 10.8826C45.0059 8.79158 44.1755 6.78615 42.6972 5.30734L41.2827 6.72127C42.386 7.82502 43.0059 9.32185 43.0059 10.8826H45.0059ZM42.6972 16.4578C44.1755 14.979 45.0059 12.9736 45.0059 10.8826H43.0059C43.0059 12.4433 42.386 13.9402 41.2827 15.0439L42.6972 16.4578ZM41.4779 17.6755L42.6966 16.4585L41.2833 15.0433L40.0646 16.2604L41.4779 17.6755ZM40.1628 18.2111C40.6458 18.2111 41.1104 18.0255 41.4604 17.6926L40.0822 16.2433C40.1039 16.2226 40.1328 16.2111 40.1628 16.2111V18.2111ZM38.8652 17.6926C39.2152 18.0255 39.6798 18.2111 40.1628 18.2111V16.2111C40.1928 16.2111 40.2217 16.2226 40.2434 16.2433L38.8652 17.6926ZM30.3268 9.15559L38.8473 17.6751L40.2614 16.2608L31.7409 7.7413L30.3268 9.15559ZM29.7819 7.83991C29.7819 8.33328 29.9778 8.80647 30.3266 9.15542L31.7411 7.74148C31.7672 7.7676 31.7819 7.80301 31.7819 7.83991H29.7819ZM30.3266 6.52441C29.9778 6.87335 29.7819 7.34654 29.7819 7.83991H31.7819C31.7819 7.87681 31.7672 7.91222 31.7411 7.93835L30.3266 6.52441ZM31.5437 5.30723L30.3267 6.5243L31.741 7.93845L32.958 6.72138L31.5437 5.30723ZM37.1204 3.00006C35.0297 3.00006 33.0243 3.82955 31.5444 5.30649L32.9572 6.72212C34.0622 5.61937 35.5594 5.00006 37.1204 5.00006V3.00006ZM28.5008 10.9823L31.5441 14.0241L32.9579 12.6096L29.9147 9.56777L28.5008 10.9823ZM28.5992 11.023C28.5623 11.023 28.5268 11.0083 28.5007 10.9822L29.9148 9.56787C29.5658 9.21902 29.0927 9.02304 28.5992 9.02304V11.023ZM28.6978 10.9822C28.6717 11.0083 28.6362 11.023 28.5992 11.023V9.02304C28.1058 9.02304 27.6327 9.21902 27.2837 9.56787L28.6978 10.9822ZM10.44 29.24L28.6979 10.9822L27.2837 9.56794L9.02576 27.8257L10.44 29.24ZM10.4809 29.1414C10.4809 29.1783 10.4662 29.2137 10.4401 29.2398L9.02562 27.8259C8.67682 28.1748 8.48088 28.648 8.48088 29.1414H10.4809ZM10.4401 29.043C10.4662 29.0691 10.4809 29.1045 10.4809 29.1414H8.48088C8.48088 29.6348 8.67681 30.1079 9.02562 30.4569L10.4401 29.043ZM13.4833 32.0864L10.44 29.0428L9.02573 30.457L12.069 33.5005L13.4833 32.0864ZM13.0808 31.9185C13.2297 31.9185 13.3726 31.9771 13.4786 32.0817L12.0737 33.5052C12.342 33.77 12.7038 33.9185 13.0808 33.9185V31.9185ZM12.6831 32.0817C12.789 31.9771 12.9319 31.9185 13.0808 31.9185V33.9185C13.4578 33.9185 13.8196 33.77 14.0879 33.5052L12.6831 32.0817ZM31.5439 13.2192L12.6783 32.0864L14.0926 33.5005L32.9581 14.6333L31.5439 13.2192ZM31.376 13.6216C31.376 13.4727 31.4346 13.3299 31.5392 13.2239L32.9628 14.6286C33.2276 14.3603 33.376 13.9985 33.376 13.6216H31.376ZM31.5392 14.0192C31.4346 13.9133 31.376 13.7704 31.376 13.6216H33.376C33.376 13.2446 33.2276 12.8828 32.9628 12.6145L31.5392 14.0192ZM33.3695 15.0439L14.504 33.9111L15.9183 35.3253L34.7838 16.4581L33.3695 15.0439ZM34.3813 14.626C34.0044 14.626 33.6426 14.7745 33.3743 15.0392L34.7791 16.4628C34.6731 16.5673 34.5302 16.626 34.3813 16.626V14.626ZM35.3884 15.0392C35.1201 14.7745 34.7583 14.626 34.3813 14.626V16.626C34.2324 16.626 34.0896 16.5673 33.9836 16.4628L35.3884 15.0392ZM38.4364 18.0875L35.3932 15.0439L33.9789 16.4581L37.0222 19.5016L38.4364 18.0875ZM38.9813 19.4031C38.9813 18.9097 38.7854 18.4365 38.4365 18.0876L37.0221 19.5015C36.9959 19.4754 36.9813 19.44 36.9813 19.4031H38.9813ZM38.4365 20.7186C38.7853 20.3696 38.9813 19.8965 38.9813 19.4031H36.9813C36.9813 19.3662 36.9959 19.3308 37.0221 19.3046L38.4365 20.7186ZM20.1785 38.9782L38.4364 20.7187L37.0222 19.3045L18.7643 37.5641L20.1785 38.9782ZM18.8629 39.5183C19.3506 39.5183 19.8191 39.328 20.1687 38.988L18.7741 37.5543C18.7979 37.5312 18.8297 37.5183 18.8629 37.5183V39.5183ZM17.5572 38.988C17.9067 39.328 18.3752 39.5183 18.8629 39.5183V37.5183C18.8961 37.5183 18.9279 37.5312 18.9517 37.5543L17.5572 38.988ZM14.504 35.9347L17.5473 38.9782L18.9616 37.5641L15.9183 34.5205L14.504 35.9347ZM14.0861 34.9229C14.0861 35.2998 14.2346 35.6616 14.4993 35.93L15.923 34.5253C16.0275 34.6312 16.0861 34.7741 16.0861 34.9229H14.0861ZM14.4993 33.9159C14.2346 34.1842 14.0861 34.546 14.0861 34.9229H16.0861C16.0861 35.0717 16.0275 35.2146 15.923 35.3206L14.4993 33.9159ZM8.61222 30.8665C8.37643 30.6314 8.08185 30.4638 7.7592 30.3813L7.2639 32.319C7.23971 32.3128 7.21765 32.3003 7.2 32.2827L8.61222 30.8665ZM17.1338 39.3905L8.61332 30.8676L7.1989 32.2816L15.7194 40.8045L17.1338 39.3905ZM17.6206 40.2436C17.5376 39.9204 17.3692 39.6256 17.1331 39.3899L15.72 40.8052C15.7024 40.7876 15.6898 40.7655 15.6836 40.7413L17.6206 40.2436ZM17.6051 41.2265C17.6983 40.9062 17.7037 40.5667 17.6206 40.2436L15.6836 40.7413C15.6774 40.7172 15.6778 40.6918 15.6847 40.6678L17.6051 41.2265ZM17.0908 42.0644C17.3343 41.8363 17.5119 41.5469 17.6051 41.2265L15.6847 40.6678C15.6917 40.6438 15.705 40.6222 15.7232 40.6051L17.0908 42.0644ZM16.2214 42.5233C16.5471 42.451 16.8474 42.2926 17.0909 42.0644L15.7232 40.6051C15.7414 40.588 15.7639 40.5761 15.7883 40.5707L16.2214 42.5233ZM5.26738 44.9573L16.2218 42.5232L15.7879 40.5708L4.83355 43.005L5.26738 44.9573ZM4.34313 44.9247C4.64028 45.0116 4.95429 45.0235 5.25717 44.9596L4.84376 43.0027C4.86376 42.9985 4.88451 42.9993 4.90415 43.005L4.34313 44.9247ZM3.55421 44.4619C3.77498 44.6789 4.046 44.8379 4.34313 44.9247L4.90415 43.005C4.92376 43.0108 4.94166 43.0213 4.95623 43.0356L3.55421 44.4619ZM3.07755 43.6592C3.1647 43.9597 3.32622 44.2334 3.54719 44.4549L4.96325 43.0426C4.97979 43.0592 4.99188 43.0796 4.9984 43.1021L3.07755 43.6592ZM3.04856 42.7357C2.98043 43.0411 2.9904 43.3587 3.07755 43.6592L4.9984 43.1021C5.00492 43.1246 5.00566 43.1484 5.00057 43.1712L3.04856 42.7357ZM5.48229 31.7795L3.04836 42.7366L5.00077 43.1703L7.4347 32.2132L5.48229 31.7795ZM5.94156 30.9109C5.7137 31.1537 5.5552 31.4533 5.48257 31.7782L7.43442 32.2145C7.42898 32.2388 7.41712 32.2612 7.40006 32.2794L5.94156 30.9109ZM6.77798 30.3976C6.45827 30.4908 6.16941 30.668 5.94156 30.9109L7.40007 32.2794C7.38301 32.2975 7.36138 32.3108 7.33742 32.3178L6.77798 30.3976ZM7.75921 30.3813C7.43656 30.2989 7.09769 30.3045 6.77798 30.3976L7.33742 32.3178C7.31347 32.3248 7.28808 32.3252 7.26389 32.319L7.75921 30.3813Z" fill="black" mask="url(#path-1-outside-1)"/>
</g>
<defs>
<filter id="filter0_d" x="3.00391" y="3.00006" width="44.002" height="44" filterUnits="userSpaceOnUse" color-interpolation-filters="sRGB">
<feFlood flood-opacity="0" result="BackgroundImageFix"/>
<feColorMatrix in="SourceAlpha" type="matrix" values="0 0 0 0 0 0 0 0 0 0 0 0 0 0 0 0 0 0 127 0" result="hardAlpha"/>
<feOffset dx="2" dy="2"/>
<feColorMatrix type="matrix" values="0 0 0 0 0 0 0 0 0 0 0 0 0 0 0 0 0 0 1 0"/>
<feBlend mode="normal" in2="BackgroundImageFix" result="effect1_dropShadow"/>
<feBlend mode="normal" in="SourceGraphic" in2="effect1_dropShadow" result="shape"/>
</filter>
</defs>
</svg>
