<svg width="24" height="24" viewBox="0 0 24 24" fill="none" xmlns="http://www.w3.org/2000/svg">
<path fill-rule="evenodd" clip-rule="evenodd" d="M0.820355 22.9036C0.628959 23.1027 0.635165 23.4192 0.834218 23.6106C1.03327 23.802 1.34979 23.7958 1.54119 23.5967L12.0131 12.7059L22.9037 23.1777C23.1028 23.3691 23.4193 23.3629 23.6107 23.1639C23.8021 22.9648 23.7959 22.6483 23.5968 22.4569L12.7062 11.9851L23.1761 1.09643C23.3675 0.897379 23.3613 0.580859 23.1622 0.389462C22.9632 0.198065 22.6466 0.204272 22.4552 0.403325L11.9853 11.292L1.09655 0.822017C0.897502 0.63062 0.580981 0.636827 0.389584 0.835879C0.198187 1.03493 0.204394 1.35145 0.403446 1.54285L11.2922 12.0128L0.820355 22.9036Z" fill="black"/>
</svg>
